<svg xmlns="http://www.w3.org/2000/svg" version="1.1" xmlns:xlink="http://www.w3.org/1999/xlink" xmlns:svgjs="http://svgjs.dev/svgjs" width="2000" height="1500" viewBox="0 0 2000 1500"><rect width="2000" height="1500" fill="#102e44"></rect><g transform="matrix(0.75,0,0,0.75,249.090909090909,303.14607444140825)"><svg viewBox="0 0 396 236" data-background-color="#102e44" preserveAspectRatio="xMidYMid meet" height="1191" width="2000" xmlns="http://www.w3.org/2000/svg" xmlns:xlink="http://www.w3.org/1999/xlink"><g id="tight-bounds" transform="matrix(1,0,0,1,0.2400000000000091,0.060482991130882624)"><svg viewBox="0 0 395.52 235.87903401773823" height="235.87903401773823" width="395.52"><g><svg viewBox="0 0 414.50290148571423 247.2" height="235.87903401773823" width="395.52"><g transform="matrix(1,0,0,1,194.38861577142853,0)"><svg viewBox="0 0 220.11428571428567 247.2" height="247.2" width="220.11428571428567"><g id="textblocktransform"><svg viewBox="0 0 220.11428571428567 247.2" height="247.2" width="220.11428571428567" id="textblock"><g><svg viewBox="0 0 220.11428571428567 247.2" height="247.2" width="220.11428571428567"><g transform="matrix(1,0,0,1,0,0)"><svg width="220.11428571428567" viewBox="3.05 -35.65 32.1 36.05" height="247.2" data-palette-color="#ffffff"><path d="M19.1 0.4Q14.2 0.4 10.58-1.8 6.95-4 5-8.05 3.05-12.1 3.05-17.6L3.05-17.6Q3.05-23.15 4.98-27.23 6.9-31.3 10.53-33.48 14.15-35.65 19.1-35.65L19.1-35.65Q24.05-35.65 27.68-33.48 31.3-31.3 33.23-27.23 35.15-23.15 35.15-17.65L35.15-17.65Q35.15-12.15 33.2-8.08 31.25-4 27.63-1.8 24 0.4 19.1 0.4L19.1 0.4ZM19.1-3.1Q24.7-3.1 27.83-6.88 30.95-10.65 30.95-17.65L30.95-17.65Q30.95-24.65 27.85-28.4 24.75-32.15 19.1-32.15L19.1-32.15Q13.5-32.15 10.38-28.38 7.25-24.6 7.25-17.65L7.25-17.65Q7.25-10.7 10.38-6.9 13.5-3.1 19.1-3.1L19.1-3.1Z" opacity="1" transform="matrix(1,0,0,1,0,0)" fill="#ffffff" class="wordmark-text-0" data-fill-palette-color="primary" id="text-0"></path></svg></g></svg></g></svg></g></svg></g><g transform="matrix(1,0,0,1,0,37.762413295292845)"><svg viewBox="0 0 136.03062857142854 171.6751734094143" height="171.6751734094143" width="136.03062857142854"><g><svg xmlns="http://www.w3.org/2000/svg" xmlns:xlink="http://www.w3.org/1999/xlink" version="1.1" x="0" y="0" viewBox="-250.70000000000002 140.98709328582086 63.39999999999998 80.01290671417914" enable-background="new -269 131 100 100" xml:space="preserve" height="171.6751734094143" width="136.03062857142854" class="icon-icon-0" data-fill-palette-color="accent" id="icon-0"><path d="M-200.1 163.7l-1-0.8c-1.2-1-3.1-0.6-3.8 0.8-0.3 0.7-0.6 7.7-0.6 8.9 0 0.2 0 0.6 0 0.7 0 1-0.9 1.8-1.9 1.6-0.8-0.1-1.4-0.9-1.4-1.7-0.1-12-3.7-20.4-10.5-26.7-4.1-3.8-9-7.2-10.5-4.6-0.4 0.7 0.2 2.2 0.9 4.1 1.4 4.3-2.9 11.2-9 18.1-5.7 6.5-12.8 14.5-12.8 26.4 0 16 15.1 30.5 31.7 30.5 16.6 0 31.7-14.5 31.7-30.5C-187.3 180.4-192.1 170.4-200.1 163.7zM-219 215.2c-7.2 0-13.1-5.9-13.1-13.1 0-3.6 1.4-6.8 3.8-9.2l7.2-8.6c1.1-1.3 3.2-1.3 4.3 0l7.2 8.6c2.3 2.4 3.8 5.6 3.8 9.2C-205.9 209.3-211.8 215.2-219 215.2z" fill="#b2fcfb" data-fill-palette-color="accent"></path></svg></g></svg></g></svg></g><defs></defs></svg><rect width="395.52" height="235.87903401773823" fill="none" stroke="none" visibility="hidden"></rect></g></svg></g></svg>